<?xml version="1.0" encoding="UTF-8" standalone="no"?>
<svg
   width="2551.0115"
   height="2493.6201"
   xml:space="preserve"
   overflow="hidden"
   version="1.1"
   id="svg11"
   sodipodi:docname="chea_kg_ts.svg"
   inkscape:version="1.4 (e7c3feb1, 2024-10-09)"
   inkscape:export-filename="chea_kg_ts.png"
   inkscape:export-xdpi="96"
   inkscape:export-ydpi="96"
   xmlns:inkscape="http://www.inkscape.org/namespaces/inkscape"
   xmlns:sodipodi="http://sodipodi.sourceforge.net/DTD/sodipodi-0.dtd"
   xmlns:xlink="http://www.w3.org/1999/xlink"
   xmlns="http://www.w3.org/2000/svg"
   xmlns:svg="http://www.w3.org/2000/svg"><defs
     id="defs11"><linearGradient
       id="linearGradient3"
       inkscape:collect="always"><stop
         style="stop-color:#d7eef4;stop-opacity:1;"
         offset="0"
         id="stop3" /><stop
         style="stop-color:#156082;stop-opacity:1;"
         offset="0.81375033"
         id="stop4" /></linearGradient><linearGradient
       id="linearGradient1"
       inkscape:collect="always"><stop
         style="stop-color:#156082;stop-opacity:1;"
         offset="0"
         id="stop1" /><stop
         style="stop-color:#156082;stop-opacity:0;"
         offset="1"
         id="stop2" /></linearGradient><clipPath
       clipPathUnits="userSpaceOnUse"
       id="clipPath24"><rect
         style="opacity:1;fill:none;fill-opacity:1;fill-rule:evenodd;stroke:none;stroke-width:50;stroke-dasharray:none"
         id="rect24"
         width="2524.947"
         height="2524.947"
         x="-433.53076"
         y="-12.530754"
         ry="1.499283" /></clipPath><clipPath
       clipPathUnits="userSpaceOnUse"
       id="clipPath25"><rect
         style="opacity:1;fill:none;fill-opacity:1;fill-rule:evenodd;stroke:none;stroke-width:50;stroke-dasharray:none"
         id="rect25"
         width="2524.947"
         height="2524.947"
         x="-433.53076"
         y="-12.530754"
         ry="1.499283" /></clipPath><clipPath
       clipPathUnits="userSpaceOnUse"
       id="clipPath26"><rect
         style="opacity:1;fill:none;fill-opacity:1;fill-rule:evenodd;stroke:none;stroke-width:50;stroke-dasharray:none"
         id="rect26"
         width="2524.947"
         height="2524.947"
         x="-433.53076"
         y="-12.530754"
         ry="1.499283" /></clipPath><clipPath
       clipPathUnits="userSpaceOnUse"
       id="clipPath27"><rect
         style="opacity:1;fill:none;fill-opacity:1;fill-rule:evenodd;stroke:none;stroke-width:50;stroke-dasharray:none"
         id="rect27"
         width="2524.947"
         height="2524.947"
         x="-433.53076"
         y="-12.530754"
         ry="1.499283" /></clipPath><clipPath
       clipPathUnits="userSpaceOnUse"
       id="clipPath28"><rect
         style="opacity:1;fill:none;fill-opacity:1;fill-rule:evenodd;stroke:none;stroke-width:50;stroke-dasharray:none"
         id="rect28"
         width="2524.947"
         height="2524.947"
         x="-433.53076"
         y="-12.530754"
         ry="1.499283" /></clipPath><clipPath
       clipPathUnits="userSpaceOnUse"
       id="clipPath29"><rect
         style="opacity:1;fill:none;fill-opacity:1;fill-rule:evenodd;stroke:none;stroke-width:50;stroke-dasharray:none"
         id="rect29"
         width="2524.947"
         height="2524.947"
         x="-433.53076"
         y="-12.530754"
         ry="1.499283" /></clipPath><clipPath
       clipPathUnits="userSpaceOnUse"
       id="clipPath30"><rect
         style="opacity:1;fill:none;fill-opacity:1;fill-rule:evenodd;stroke:none;stroke-width:50;stroke-dasharray:none"
         id="rect30"
         width="2524.947"
         height="2524.947"
         x="-433.53076"
         y="-12.530754"
         ry="1.499283" /></clipPath><clipPath
       clipPathUnits="userSpaceOnUse"
       id="clipPath31"><rect
         style="opacity:1;fill:none;fill-opacity:1;fill-rule:evenodd;stroke:none;stroke-width:50;stroke-dasharray:none"
         id="rect31"
         width="2524.947"
         height="2524.947"
         x="-433.53076"
         y="-12.530754"
         ry="1.499283" /></clipPath><clipPath
       clipPathUnits="userSpaceOnUse"
       id="clipPath32"><rect
         style="opacity:1;fill:none;fill-opacity:1;fill-rule:evenodd;stroke:none;stroke-width:50;stroke-dasharray:none"
         id="rect32"
         width="2524.947"
         height="2524.947"
         x="-45.077381"
         y="-43.857639"
         ry="1.499283" /></clipPath><clipPath
       clipPathUnits="userSpaceOnUse"
       id="clipPath33"><rect
         style="opacity:1;fill:none;fill-opacity:1;fill-rule:evenodd;stroke:none;stroke-width:50;stroke-dasharray:none"
         id="rect33"
         width="2524.947"
         height="2524.947"
         x="-433.53076"
         y="-12.530754"
         ry="1.499283" /></clipPath><clipPath
       clipPathUnits="userSpaceOnUse"
       id="clipPath34"><rect
         style="opacity:1;fill:none;fill-opacity:1;fill-rule:evenodd;stroke:none;stroke-width:50;stroke-dasharray:none"
         id="rect34"
         width="2524.947"
         height="2524.947"
         x="-433.53076"
         y="-12.530754"
         ry="1.499283" /></clipPath><clipPath
       clipPathUnits="userSpaceOnUse"
       id="clipPath27-3"><rect
         style="opacity:1;fill:none;fill-opacity:1;fill-rule:evenodd;stroke:none;stroke-width:50;stroke-dasharray:none"
         id="rect27-4"
         width="2524.947"
         height="2524.947"
         x="-433.53076"
         y="-12.530754"
         ry="1.499283" /></clipPath><clipPath
       clipPathUnits="userSpaceOnUse"
       id="clipPath34-2"><rect
         style="opacity:1;fill:none;fill-opacity:1;fill-rule:evenodd;stroke:none;stroke-width:50;stroke-dasharray:none"
         id="rect34-0"
         width="2524.947"
         height="2524.947"
         x="-433.53076"
         y="-12.530754"
         ry="1.499283" /></clipPath><clipPath
       clipPathUnits="userSpaceOnUse"
       id="clipPath25-0"><rect
         style="opacity:1;fill:none;fill-opacity:1;fill-rule:evenodd;stroke:none;stroke-width:50;stroke-dasharray:none"
         id="rect25-0"
         width="2524.947"
         height="2524.947"
         x="-433.53076"
         y="-12.530754"
         ry="1.499283" /></clipPath><clipPath
       clipPathUnits="userSpaceOnUse"
       id="clipPath31-8"><rect
         style="opacity:1;fill:none;fill-opacity:1;fill-rule:evenodd;stroke:none;stroke-width:50;stroke-dasharray:none"
         id="rect31-4"
         width="2524.947"
         height="2524.947"
         x="-433.53076"
         y="-12.530754"
         ry="1.499283" /></clipPath><linearGradient
       inkscape:collect="always"
       xlink:href="#linearGradient1"
       id="linearGradient2"
       x1="-210.7908"
       y1="1420.7936"
       x2="708.9574"
       y2="2158.3833"
       gradientUnits="userSpaceOnUse" /><linearGradient
       inkscape:collect="always"
       xlink:href="#linearGradient3"
       id="linearGradient4"
       x1="-210.7908"
       y1="1420.7936"
       x2="708.9574"
       y2="2158.3833"
       gradientUnits="userSpaceOnUse" /></defs><sodipodi:namedview
     id="namedview11"
     pagecolor="#ffffff"
     bordercolor="#000000"
     borderopacity="0.25"
     inkscape:showpageshadow="2"
     inkscape:pageopacity="0.0"
     inkscape:pagecheckerboard="0"
     inkscape:deskcolor="#d1d1d1"
     inkscape:zoom="0.16571872"
     inkscape:cx="1001.6973"
     inkscape:cy="763.34165"
     inkscape:window-width="1296"
     inkscape:window-height="916"
     inkscape:window-x="1835"
     inkscape:window-y="30"
     inkscape:window-maximized="0"
     inkscape:current-layer="g10" /><g
     transform="translate(439.79614,12.530754)"
     id="g11"><g
       id="g10"><g
         id="g8"
         transform="translate(-388.45338,31.326885)"
         clip-path="url(#clipPath32)"
         style="fill:#156082;stroke:#156082;fill-opacity:1;stroke-opacity:1"><g
           id="g7"
           style="fill:#156082;stroke:#156082;fill-opacity:1;stroke-opacity:1"><g
             id="g6"
             style="fill:#156082;stroke:#156082;fill-opacity:1;stroke-opacity:1"><path
               d="m 1280.6842,1179.5403 c 75.93,60.3 126.4964,165.26 180.0964,283.63 L 691.58379,1474 c 55.834,-118.37 91.62134,-247.2295 167.55434,-305.2895 35.734,-29.04 78.97054,-42.5907 78.97054,-89.4907 0,-46.9 -59.95937,-78.5033 -124.95833,-147.24626 C 690.54929,784.72827 625.67363,538.75282 603.34063,319.88682 L 1505.27,312.667 c -24.57,218.866 -45.4016,522.6 -197.2716,640.966 -37.97,29.034 -102.1071,64.2472 -102.1071,111.1472 0,46.9 39.0529,85.7201 74.7929,114.7601 z M 1637.03,312.667 h 60.3 v -134 H 446.667 v 134 h 58.066 c 24.567,247.9 167.5,609.7 375.2,759.333 -207.7,149.63 -352.866,511.43 -375.2,759.33 h -58.066 v 134 H 1697.33 v -134 h -60.3 c -22.33,-247.9 -167.5,-609.7 -375.2,-759.33 207.7,-149.633 352.87,-511.433 375.2,-759.333 z"
               stroke="#000000"
               stroke-width="27.5312"
               stroke-linecap="butt"
               stroke-linejoin="miter"
               stroke-miterlimit="4"
               stroke-opacity="1"
               fill="#000000"
               fill-rule="nonzero"
               fill-opacity="1"
               transform="matrix(1,0,0,1.15812,-420,0)"
               id="path6"
               sodipodi:nodetypes="ccccsccccscccccccccccccccc"
               style="fill:#156082;stroke:#156082;fill-opacity:1;stroke-opacity:1" /></g></g></g><path
         d="m 1430.9466,855.78489 89.36,294.78201 -307.22,22.26 z"
         fill="#156082"
         fill-rule="evenodd"
         fill-opacity="1"
         id="path2-0"
         clip-path="url(#clipPath31-8)"
         style="stroke:#ffffff;stroke-width:93;stroke-dasharray:none"
         transform="translate(-0.76922,-2.3157493)" /><path
         d="m 967.17662,670.43289 473.26998,330.92801 -82.85,118.486 -473.27998,-330.92301 z"
         fill="#156082"
         fill-rule="nonzero"
         fill-opacity="1"
         id="path1"
         clip-path="url(#clipPath25)"
         style="stroke:#ffffff;stroke-width:92.9;stroke-dasharray:none;stroke-opacity:1;paint-order:fill markers stroke" /><g
         id="g2"
         transform="translate(-2.47768,-3.7983397)"
         style="stroke:#ffffff;stroke-width:93;stroke-dasharray:none"><path
           d="m 1131.2466,1658.4169 475.04,-328.39 85.16,123.17 -475.05,328.39 z"
           fill="#156082"
           fill-rule="nonzero"
           fill-opacity="1"
           id="path3-1"
           clip-path="url(#clipPath27-3)"
           transform="rotate(2.3889217,1883.5926,1229.6575)"
           style="stroke:#ffffff;stroke-width:93;stroke-dasharray:none" /><path
           d="m 1073.1066,1506.3769 267.71,396.6 -136.76,92.32 -267.70998,-396.6 z"
           fill="#156082"
           fill-rule="nonzero"
           fill-opacity="1"
           id="path4-8"
           clip-path="url(#clipPath34-2)"
           transform="matrix(0.83485344,0.04101387,-0.04101387,0.83485344,276.35832,186.36083)"
           style="stroke:#ffffff;stroke-width:111.263;stroke-dasharray:none" /></g><path
         d="m 1496.5466,1288.8269 c 0,-159.33 129.17,-288.5 288.5,-288.5 159.33,0 288.5,129.17 288.5,288.5 0,159.33 -129.17,288.5 -288.5,288.5 -159.33,0 -288.5,-129.17 -288.5,-288.5 z"
         fill="#156082"
         fill-rule="evenodd"
         fill-opacity="1"
         id="path5"
         style="stroke:#ffffff;stroke-width:50;stroke-dasharray:none"
         clip-path="url(#clipPath33)" /><path
         d="m 1430.9466,855.78489 89.36,294.78201 -307.22,22.26 z"
         fill="#156082"
         fill-rule="evenodd"
         fill-opacity="1"
         id="path2"
         clip-path="url(#clipPath31)"
         style="stroke:none;stroke-width:50;stroke-dasharray:none" /><path
         d="m 495.54662,642.32689 c 0,-159.61 129.39,-289 289,-289 159.61,0 288.99998,129.39 288.99998,289 0,159.61 -129.38998,289 -288.99998,289 -159.61,0 -289,-129.39 -289,-289 z"
         fill="#156082"
         fill-rule="evenodd"
         fill-opacity="1"
         id="path8"
         style="stroke:#ffffff;stroke-width:50;stroke-dasharray:none"
         clip-path="url(#clipPath30)" /><path
         d="m -196.70613,2144.5955 c 3.27,-172.46 57.18831,-351.4984 131.727311,-503.9084 -1.874,-3.95 191.142439,-54.7502 317.688439,-7.3502 111.84,34.79 204.57854,68.1819 350.78354,7.0319 126.07696,248.24 98.37476,345.4288 104.94476,520.1388 z"
         fill="#d7a841"
         fill-rule="evenodd"
         fill-opacity="1"
         id="path9"
         sodipodi:nodetypes="cccccc"
         style="fill:url(#linearGradient4);stroke:url(#linearGradient2);stroke-opacity:1"
         clip-path="url(#clipPath29)" /><path
         d="m 496.54662,1989.3269 c 0,-159.61 129.17,-289 288.5,-289 159.33,0 288.49998,129.39 288.49998,289 0,159.61 -129.16998,289 -288.49998,289 -159.33,0 -288.5,-129.39 -288.5,-289 z"
         fill="#156082"
         fill-rule="evenodd"
         fill-opacity="1"
         id="path10"
         style="stroke:#ffffff;stroke-width:50;stroke-dasharray:none"
         clip-path="url(#clipPath28)"
         transform="translate(0,-82)" /><path
         sodipodi:type="star"
         style="opacity:0.95;fill:none;fill-rule:evenodd;stroke-width:2"
         id="path11"
         inkscape:flatsided="false"
         sodipodi:sides="5"
         sodipodi:cx="-1403.4664"
         sodipodi:cy="-75.252747"
         sodipodi:r1="593.61639"
         sodipodi:r2="296.8082"
         sodipodi:arg1="1.2557272"
         sodipodi:arg2="1.8840457"
         inkscape:rounded="0"
         inkscape:randomized="0"
         d="m -1219.5153,489.14286 -275.413,-282.0309 -388.4662,66.99107 183.12,-349.085713 -183.755,-348.751927 388.5875,66.28406 274.8994,-282.53161 57.0402,390.05152 353.65212,174.137785 -353.33462,174.781031 z"
         inkscape:transform-center-x="-56.526563"
         inkscape:transform-center-y="-0.16690504" /><path
         sodipodi:type="star"
         style="opacity:0.95;fill:none;fill-rule:evenodd;stroke-width:2"
         id="path12"
         inkscape:flatsided="false"
         sodipodi:sides="5"
         sodipodi:cx="-2013.8499"
         sodipodi:cy="100.337"
         sodipodi:r1="653.22144"
         sodipodi:r2="326.61072"
         sodipodi:arg1="1.0183028"
         sodipodi:arg2="1.6466213"
         inkscape:rounded="0"
         inkscape:randomized="0"
         d="m -1671.0318,656.37119 -367.5596,-230.36194 -398.1418,172.19111 105.5051,-420.75569 -286.7961,-325.44539 432.7653,-29.67937 220.8921,-373.32742 161.9586,402.41282 423.3149,94.716361 -332.6694,278.384179 z"
         inkscape:transform-center-x="-15.291104"
         inkscape:transform-center-y="-47.655163" /><g
         id="g1"><path
           d="m 1131.2466,1658.4169 475.04,-328.39 85.16,123.17 -475.05,328.39 z"
           fill="#156082"
           fill-rule="nonzero"
           fill-opacity="1"
           id="path3"
           clip-path="url(#clipPath27)"
           transform="rotate(2.3889217,1883.5926,1229.6575)"
           style="stroke:none;stroke-width:50;stroke-dasharray:none" /><path
           d="m 1073.1066,1506.3769 267.71,396.6 -136.76,92.32 -267.70998,-396.6 z"
           fill="#156082"
           fill-rule="nonzero"
           fill-opacity="1"
           id="path4"
           clip-path="url(#clipPath34)"
           transform="matrix(0.83485344,0.04101387,-0.04101387,0.83485344,276.35832,186.36083)"
           style="stroke:none;stroke-width:59.8186;stroke-dasharray:none" /></g><path
         d="m 967.17662,670.43289 473.26998,330.92801 -82.85,118.486 -473.27998,-330.92301 z"
         fill="#156082"
         fill-rule="nonzero"
         fill-opacity="1"
         id="path1-5"
         clip-path="url(#clipPath25-0)"
         style="stroke:none;stroke-width:50;stroke-dasharray:none;stroke-opacity:1;paint-order:fill markers stroke"
         transform="translate(10.071017,4.2359339)" /><rect
         style="opacity:1;fill:none;fill-opacity:1;fill-rule:evenodd;stroke:none;stroke-width:50.5087;stroke-dasharray:none"
         id="rect35"
         width="2551.0115"
         height="2493.6201"
         x="-439.79614"
         y="-12.530754"
         ry="1.499283" /></g></g></svg>
